<?xml version="1.0" encoding="UTF-8" standalone="no"?>
<!-- Created with Inkscape (http://www.inkscape.org/) -->

<svg
   xmlns:dc="http://purl.org/dc/elements/1.1/"
   xmlns:cc="http://creativecommons.org/ns#"
   xmlns:rdf="http://www.w3.org/1999/02/22-rdf-syntax-ns#"
   xmlns:svg="http://www.w3.org/2000/svg"
   xmlns="http://www.w3.org/2000/svg"
   xmlns:sodipodi="http://sodipodi.sourceforge.net/DTD/sodipodi-0.dtd"
   xmlns:inkscape="http://www.inkscape.org/namespaces/inkscape"
   version="1.0"
   width="1814.28"
   height="468.85999"
   id="svg2"
   inkscape:version="0.47 r22583"
   sodipodi:docname="Targzip.svg">
  <metadata
     id="metadata2968">
    <rdf:RDF>
      <cc:Work
         rdf:about="">
        <dc:format>image/svg+xml</dc:format>
        <dc:type
           rdf:resource="http://purl.org/dc/dcmitype/StillImage" />
        <dc:title></dc:title>
      </cc:Work>
    </rdf:RDF>
  </metadata>
  <sodipodi:namedview
     pagecolor="#ffffff"
     bordercolor="#666666"
     borderopacity="1"
     objecttolerance="10"
     gridtolerance="10"
     guidetolerance="10"
     inkscape:pageopacity="0"
     inkscape:pageshadow="2"
     inkscape:window-width="1153"
     inkscape:window-height="870"
     id="namedview2966"
     showgrid="false"
     inkscape:zoom="0.41858625"
     inkscape:cx="851.27737"
     inkscape:cy="130.98467"
     inkscape:window-x="27"
     inkscape:window-y="66"
     inkscape:window-maximized="0"
     inkscape:current-layer="svg2" />
  <defs
     id="defs4">
    <inkscape:perspective
       sodipodi:type="inkscape:persp3d"
       inkscape:vp_x="0 : 234.42999 : 1"
       inkscape:vp_y="0 : 1000 : 0"
       inkscape:vp_z="1814.28 : 234.42999 : 1"
       inkscape:persp3d-origin="907.14001 : 156.28666 : 1"
       id="perspective2970" />
  </defs>
  <g
     id="g3987">
    <path
       d="m 138.97997,200.12344 c 0,25.23429 -20.48,45.71429 -45.71429,45.71429 -25.23428,0 -45.71428,-20.48 -45.71428,-45.71429 0,-25.23429 20.48,-45.71429 45.71428,-45.71429 25.23429,0 45.71429,20.48 45.71429,45.71429 z"
       id="path2383"
       style="fill:#aaccff;fill-opacity:1;stroke:#000000;stroke-width:6;stroke-linecap:round;stroke-linejoin:round;stroke-miterlimit:4;stroke-opacity:1" />
    <path
       d="m 273.26597,100.12344 c 0,25.23429 -20.48,45.71429 -45.71429,45.71429 -25.23428,0 -45.71428,-20.48 -45.71428,-45.71429 0,-25.234286 20.48,-45.714287 45.71428,-45.714287 25.23429,0 45.71429,20.480001 45.71429,45.714287 z"
       id="path2385"
       style="fill:#aaccff;fill-opacity:1;stroke:#000000;stroke-width:6;stroke-linecap:round;stroke-linejoin:round;stroke-miterlimit:4;stroke-opacity:1" />
    <path
       d="m 321.83697,265.83744 c 0,25.23429 -20.48,45.71429 -45.71429,45.71429 -25.23428,0 -45.71428,-20.48 -45.71428,-45.71429 0,-25.23429 20.48,-45.71429 45.71428,-45.71429 25.23429,0 45.71429,20.48 45.71429,45.71429 z"
       id="path2387"
       style="fill:#aaccff;fill-opacity:1;stroke:#000000;stroke-width:6;stroke-linecap:round;stroke-linejoin:round;stroke-miterlimit:4;stroke-opacity:1" />
    <path
       d="m 227.55097,371.55144 c 0,25.23429 -20.48,45.71429 -45.71429,45.71429 -25.23428,0 -45.71428,-20.48 -45.71428,-45.71429 0,-25.23429 20.48,-45.71429 45.71428,-45.71429 25.23429,0 45.71429,20.48 45.71429,45.71429 z"
       id="path2389"
       style="fill:#aaccff;fill-opacity:1;stroke:#000000;stroke-width:6;stroke-linecap:round;stroke-linejoin:round;stroke-miterlimit:4;stroke-opacity:1" />
    <path
       d="m 441.83717,145.83744 c 0,25.23429 -20.48,45.71429 -45.71429,45.71429 -25.23428,0 -45.71428,-20.48 -45.71428,-45.71429 0,-25.23429 20.48,-45.71429 45.71428,-45.71429 25.23429,0 45.71429,20.48 45.71429,45.71429 z"
       id="path2391"
       style="fill:#aaccff;fill-opacity:1;stroke:#000000;stroke-width:6;stroke-linecap:round;stroke-linejoin:round;stroke-miterlimit:4;stroke-opacity:1" />
    <path
       d="m 444.69427,360.12344 c 0,25.23429 -20.48,45.71429 -45.71429,45.71429 -25.23428,0 -45.71428,-20.48 -45.71428,-45.71429 0,-25.23429 20.48,-45.71429 45.71428,-45.71429 25.23429,0 45.71429,20.48 45.71429,45.71429 z"
       id="path2393"
       style="fill:#aaccff;fill-opacity:1;stroke:#000000;stroke-width:6;stroke-linecap:round;stroke-linejoin:round;stroke-miterlimit:4;stroke-opacity:1" />
  </g>
  <g
     id="g2976">
    <path
       d="m 607.60334,168.04573 c -13.82767,-0.60517 -115.95199,58.62131 -115.95199,67.78246 1e-5,9.45668 108.81992,72.28814 117.00964,67.5598 2.38161,-1.37501 4.0506,-13.01251 5.04704,-28.89058 l 115.09845,0 c 0.99645,15.87807 2.684,27.51557 5.06559,28.89058 8.18973,4.72834 116.99109,-58.10312 116.99109,-67.5598 0,-9.45668 -108.80136,-72.26959 -116.99109,-67.54125 -2.48196,1.43297 -4.21787,14.00115 -5.19548,30.91311 l -114.83867,0 c -0.97761,-16.91196 -2.69496,-29.48014 -5.17693,-30.91311 -0.25592,-0.14775 -0.6116,-0.22169 -1.05765,-0.24121 z"
       id="rect2428"
       style="fill:#d7eef4;fill-opacity:1;stroke:#000000;stroke-width:6;stroke-linecap:round;stroke-linejoin:round;stroke-miterlimit:4;stroke-opacity:1;stroke-dasharray:none" />
    <path
       d="m 648.95672,254.26115 0.82074,5.01917 c -1.59941,0.33672 -3.03046,0.50508 -4.29313,0.50508 -2.06239,0 -3.66179,-0.3262 -4.7982,-0.97858 -1.13642,-0.65239 -1.93612,-1.50996 -2.3991,-2.57272 -0.463,-1.06276 -0.69449,-3.29877 -0.69448,-6.70802 l 0,-19.28753 -4.16686,0 0,-4.41939 4.16686,0 0,-8.30216 5.65052,-3.40926 0,11.71142 5.71365,0 0,4.41939 -5.71365,0 0,19.6032 c -10e-6,1.62046 0.1,2.66216 0.29989,3.12514 0.19991,0.463 0.5261,0.83128 0.97858,1.10486 0.45244,0.27359 1.09957,0.41037 1.94137,0.41037 0.63134,0 1.4626,-0.0736 2.49381,-0.22097 l 0,0 z m 27.40028,0.94702 c -2.10451,1.7888 -4.13006,3.05149 -6.07668,3.78805 -1.94666,0.73657 -4.03535,1.10485 -6.26607,1.10485 -3.68285,0 -6.51336,-0.89966 -8.49156,-2.69899 -1.97822,-1.79932 -2.96732,-4.09846 -2.96732,-6.89742 0,-1.64148 0.37355,-3.14092 1.12064,-4.49831 0.74708,-1.35738 1.72566,-2.44645 2.93574,-3.2672 1.21007,-0.82073 2.57271,-1.44155 4.08794,-1.86247 1.11536,-0.2946 2.79895,-0.57871 5.05074,-0.85231 4.58774,-0.54714 7.96543,-1.19953 10.13306,-1.95716 0.021,-0.77864 0.0316,-1.27319 0.0316,-1.48366 -10e-6,-2.31489 -0.53666,-3.94586 -1.60992,-4.8929 -1.4521,-1.28371 -3.60919,-1.92557 -6.47126,-1.9256 -2.6727,3e-5 -4.64564,0.46827 -5.91884,1.40474 -1.27321,0.93652 -2.21497,2.59379 -2.82526,4.97182 L 653.534,235.384 c 0.50507,-2.37803 1.33633,-4.29837 2.4938,-5.761 1.15745,-1.46258 2.83051,-2.58847 5.01917,-3.37769 2.18865,-0.78914 4.72454,-1.18373 7.60769,-1.18377 2.86207,4e-5 5.18751,0.33675 6.97634,1.01015 1.78877,0.67347 3.10407,1.52052 3.94588,2.54116 0.84177,1.0207 1.43102,2.30969 1.76777,3.86698 0.18937,0.96808 0.28407,2.71479 0.2841,5.24013 l 0,7.57613 c -3e-5,5.28224 0.12098,8.62308 0.36302,10.02256 0.24199,1.39948 0.72075,2.74108 1.43631,4.02481 l -5.93462,0 c -0.58928,-1.1785 -0.96809,-2.55694 -1.13642,-4.13529 l 0,0 z m -0.47351,-12.68999 c -2.06241,0.8418 -5.15598,1.55732 -9.28074,2.14656 -2.33598,0.33673 -3.98799,0.71553 -4.95604,1.13642 -0.96807,0.42091 -1.71515,1.03646 -2.24127,1.84668 -0.52613,0.81022 -0.78918,1.70989 -0.78917,2.69899 -10e-6,1.51523 0.57346,2.77791 1.7204,3.78805 1.14693,1.01015 2.82525,1.51523 5.03496,1.51522 2.18864,1e-5 4.13528,-0.47876 5.83992,-1.4363 1.7046,-0.95753 2.95677,-2.26757 3.7565,-3.93011 0.61027,-1.28372 0.91542,-3.17775 0.91544,-5.68209 l 0,-2.08342 z m 14.52088,16.82528 0,-33.5243 5.11388,0 0,5.08231 c 1.30476,-2.37803 2.50958,-3.94586 3.61444,-4.70351 1.10483,-0.75757 2.32016,-1.13638 3.646,-1.13642 1.91506,4e-5 3.86169,0.61034 5.83992,1.8309 l -1.95716,5.27171 c -1.38897,-0.82072 -2.77793,-1.23109 -4.16686,-1.23111 -1.24166,2e-5 -2.35703,0.37357 -3.34612,1.12063 -0.98912,0.74712 -1.69412,1.78357 -2.115,3.10936 -0.63135,2.02032 -0.94703,4.23002 -0.94701,6.6291 l 0,17.55133 -5.68209,0 z"
       id="text2435"
       style="font-size:73.76820374px;font-style:normal;font-variant:normal;font-weight:normal;font-stretch:normal;text-align:start;line-height:125%;text-anchor:start;fill:#000000;fill-opacity:1;stroke:none;font-family:Arial" />
  </g>
  <g
     id="g2980">
    <path
       d="m 1328.3127,168.04572 c -13.8276,-0.60516 -115.952,58.62132 -115.952,67.78247 10e-5,9.45667 108.82,72.28814 117.0097,67.5598 2.3816,-1.37502 4.0506,-13.01252 5.047,-28.89058 l 115.0985,0 c 0.9964,15.87806 2.684,27.51556 5.0656,28.89058 8.1897,4.72834 116.9911,-58.10313 116.9911,-67.5598 0,-9.45668 -108.8014,-72.26959 -116.9911,-67.54125 -2.482,1.43296 -4.2179,14.00115 -5.1955,30.91311 l -114.8387,0 c -0.9776,-16.91196 -2.6949,-29.48015 -5.1769,-30.91311 -0.2559,-0.14776 -0.6116,-0.22169 -1.0577,-0.24122 z"
       id="path2439"
       style="fill:#ffeeaa;fill-opacity:1;stroke:#000000;stroke-width:6;stroke-linecap:round;stroke-linejoin:round;stroke-miterlimit:4;stroke-opacity:1;stroke-dasharray:none" />
    <path
       d="m 1336.1906,255.60864 5.5244,0.82075 c 0.2314,1.70462 0.8733,2.94626 1.9255,3.72493 1.41,1.05222 3.3356,1.57834 5.7768,1.57835 2.6306,-10e-6 4.6614,-0.52613 6.0924,-1.57835 1.4311,-1.05226 2.3991,-2.52538 2.9042,-4.41941 0.2946,-1.15746 0.4314,-3.58813 0.4104,-7.29201 -2.4833,2.92522 -5.5769,4.38783 -9.2808,4.38783 -4.6088,0 -8.1759,-1.66253 -10.7012,-4.9876 -2.5254,-3.32507 -3.7881,-7.31304 -3.7881,-11.96395 0,-3.19878 0.5788,-6.1503 1.7362,-8.85458 1.1575,-2.70422 2.8359,-4.79292 5.035,-6.26608 2.1992,-1.4731 4.7824,-2.20966 7.7497,-2.2097 3.9564,4e-5 7.2184,1.59944 9.7858,4.79821 l 0,-4.0406 5.2402,0 0,28.97864 c 0,5.2191 -0.5314,8.91771 -1.5941,11.09585 -1.0628,2.17812 -2.7464,3.89853 -5.0508,5.16122 -2.3044,1.26267 -5.1402,1.89402 -8.5073,1.89403 -3.9985,-1e-5 -7.2289,-0.89967 -9.6912,-2.69899 -2.4622,-1.79934 -3.6512,-4.50885 -3.5671,-8.12854 l 0,0 z m 4.7035,-20.13983 c 0,4.39837 0.8734,7.60769 2.6202,9.62797 1.7467,2.02031 3.9353,3.03045 6.5659,3.03045 2.6096,0 4.7982,-1.00488 6.5659,-3.01466 1.7678,-2.00976 2.6517,-5.16121 2.6517,-9.45435 0,-4.10371 -0.9102,-7.19729 -2.7305,-9.28074 -1.8205,-2.08341 -4.0143,-3.12512 -6.5818,-3.12516 -2.5254,4e-5 -4.6719,1.02596 -6.4397,3.07781 -1.7677,2.05188 -2.6517,5.09811 -2.6517,9.13868 l 0,0 z m 29.326,17.36192 0,-4.60879 21.3393,-24.4961 c -2.4202,0.12629 -4.5562,0.18943 -6.4081,0.18939 l -13.6685,0 0,-4.6088 27.4002,0 0,3.75649 -18.1511,21.27625 -3.504,3.88277 c 2.5464,-0.18941 4.935,-0.2841 7.1658,-0.28411 l 15.4994,0 0,4.8929 -29.673,0 z m 35.3552,-39.74302 0,-6.5344 5.682,0 0,6.5344 -5.682,0 z m 0,39.74302 0,-33.5243 5.682,0 0,33.5243 -5.682,0 z m 14.363,12.84783 0,-46.37213 5.177,0 0,4.35627 c 1.2206,-1.7046 2.599,-2.98306 4.1353,-3.83541 1.5362,-0.85228 3.3987,-1.27843 5.5874,-1.27847 2.862,4e-5 5.3874,0.7366 7.5761,2.2097 2.1886,1.47316 3.8406,3.55133 4.9561,6.23451 1.1153,2.68323 1.673,5.62424 1.673,8.82301 0,3.43032 -0.6156,6.51863 -1.8467,9.26496 -1.2312,2.74635 -3.02,4.85082 -5.3664,6.31343 -2.3465,1.46261 -4.814,2.19391 -7.4025,2.19391 -1.894,0 -3.5934,-0.39985 -5.0981,-1.19954 -1.5047,-0.79971 -2.7411,-1.80985 -3.7092,-3.03045 l 0,16.32021 -5.682,0 z m 5.1454,-29.42057 c 0,4.31418 0.8734,7.50246 2.6201,9.56484 1.7467,2.06239 3.8617,3.09358 6.345,3.09358 2.5253,0 4.6877,-1.06802 6.487,-3.20406 1.7994,-2.13604 2.699,-5.44532 2.6991,-9.92787 -10e-5,-4.27207 -0.8787,-7.47086 -2.636,-9.59641 -1.7572,-2.12549 -3.8564,-3.18825 -6.2976,-3.18828 -2.4201,3e-5 -4.5614,1.13118 -6.4239,3.39347 -1.8624,2.26233 -2.7937,5.55057 -2.7937,9.86473 l 0,0 z"
       id="text2441"
       style="font-size:73.76820374px;font-style:normal;font-variant:normal;font-weight:normal;font-stretch:normal;text-align:start;line-height:125%;text-anchor:start;fill:#000000;fill-opacity:1;stroke:none;font-family:Arial" />
  </g>
  <g
     transform="translate(-245,36)"
     id="g3955">
    <rect
       width="226"
       height="330"
       rx="25"
       ry="25"
       x="1173"
       y="35.859985"
       id="rect3916"
       style="fill:#b7c8b7;fill-opacity:1;stroke:#000000;stroke-width:6;stroke-miterlimit:4;stroke-opacity:1;stroke-dasharray:none" />
    <path
       d="m 1198.6007,121.96292 a 50.816639,50.396667 0 1 1 -101.6333,0 50.816639,50.396667 0 1 1 101.6333,0 z"
       transform="matrix(0.92489391,0,0,0.93260135,172.42151,-16.8828)"
       id="path3924"
       style="fill:#aaccff;fill-opacity:1;stroke:#000000;stroke-width:6.46036816;stroke-miterlimit:4;stroke-opacity:1;stroke-dasharray:none" />
    <path
       d="m 1198.6007,121.96292 a 50.816639,50.396667 0 1 1 -101.6333,0 50.816639,50.396667 0 1 1 101.6333,0 z"
       transform="matrix(0.92489391,0,0,0.93260135,276.42151,-16.8828)"
       id="path3926"
       style="fill:#aaccff;fill-opacity:1;stroke:#000000;stroke-width:6.46036816;stroke-miterlimit:4;stroke-opacity:1;stroke-dasharray:none" />
    <path
       d="m 1198.6007,121.96292 a 50.816639,50.396667 0 1 1 -101.6333,0 50.816639,50.396667 0 1 1 101.6333,0 z"
       transform="matrix(0.92489391,0,0,0.93260135,172.42151,87.1172)"
       id="path3928"
       style="fill:#aaccff;fill-opacity:1;stroke:#000000;stroke-width:6.46036816;stroke-miterlimit:4;stroke-opacity:1;stroke-dasharray:none" />
    <path
       d="m 1198.6007,121.96292 a 50.816639,50.396667 0 1 1 -101.6333,0 50.816639,50.396667 0 1 1 101.6333,0 z"
       transform="matrix(0.92489391,0,0,0.93260135,276.42151,87.1172)"
       id="path3930"
       style="fill:#aaccff;fill-opacity:1;stroke:#000000;stroke-width:6.46036816;stroke-miterlimit:4;stroke-opacity:1;stroke-dasharray:none" />
    <path
       d="m 1198.6007,121.96292 a 50.816639,50.396667 0 1 1 -101.6333,0 50.816639,50.396667 0 1 1 101.6333,0 z"
       transform="matrix(0.92489391,0,0,0.93260135,276.42151,191.1172)"
       id="path3932"
       style="fill:#aaccff;fill-opacity:1;stroke:#000000;stroke-width:6.46036816;stroke-miterlimit:4;stroke-opacity:1;stroke-dasharray:none" />
    <path
       d="m 1198.6007,121.96292 a 50.816639,50.396667 0 1 1 -101.6333,0 50.816639,50.396667 0 1 1 101.6333,0 z"
       transform="matrix(0.92489391,0,0,0.93260135,172.42151,191.1172)"
       id="path3934"
       style="fill:#aaccff;fill-opacity:1;stroke:#000000;stroke-width:6.46036816;stroke-miterlimit:4;stroke-opacity:1;stroke-dasharray:none" />
  </g>
  <path
     d="m 1656.9832,181.85999 78.0337,0 c 9.9627,0 17.9831,8.10147 17.9831,18.16474 l 0,72.67052 c 0,10.06327 -8.0204,18.16474 -17.9831,18.16474 l -78.0337,0 c -9.9627,0 -17.9832,-8.10147 -17.9832,-18.16474 l 0,-72.67052 c 0,-10.06327 8.0205,-18.16474 17.9832,-18.16474 z"
     id="rect2409"
     style="fill:#ffeeaa;fill-opacity:1;stroke:#000000;stroke-width:6;stroke-linecap:round;stroke-linejoin:round;stroke-miterlimit:4;stroke-opacity:1" />
  <g
     transform="translate(0.5,-0.5)"
     id="g3983">
    <rect
       width="73"
       height="70"
       x="1659"
       y="201.85999"
       id="rect3977"
       style="fill:#aaccff;fill-opacity:1;stroke:#000000;stroke-width:6;stroke-miterlimit:4;stroke-opacity:1;stroke-dasharray:none" />
    <rect
       width="8.375"
       height="8"
       x="1662"
       y="260.85999"
       id="rect3621"
       style="fill:#b7c8b7;fill-opacity:1;stroke:none" />
    <rect
       width="8.375"
       height="8"
       x="1703.875"
       y="260.85999"
       id="rect3631"
       style="fill:#b7c8b7;fill-opacity:1;stroke:none" />
    <rect
       width="8.375"
       height="8"
       x="1712.25"
       y="260.85999"
       id="rect3633"
       style="fill:#b7c8b7;fill-opacity:1;stroke:none" />
    <rect
       width="8.375"
       height="8"
       x="1678.75"
       y="252.85999"
       id="rect3653"
       style="fill:#b7c8b7;fill-opacity:1;stroke:none" />
    <rect
       width="8.375"
       height="8"
       x="1695.5"
       y="252.85999"
       id="rect3657"
       style="fill:#b7c8b7;fill-opacity:1;stroke:none" />
    <rect
       width="8.375"
       height="8"
       x="1678.75"
       y="244.85999"
       id="rect3671"
       style="fill:#b7c8b7;fill-opacity:1;stroke:none" />
    <rect
       width="8.375"
       height="8"
       x="1703.875"
       y="244.85999"
       id="rect3677"
       style="fill:#b7c8b7;fill-opacity:1;stroke:none" />
    <rect
       width="8.375"
       height="8"
       x="1670.375"
       y="236.85999"
       id="rect3687"
       style="fill:#b7c8b7;fill-opacity:1;stroke:none" />
    <rect
       width="8.375"
       height="8"
       x="1687.125"
       y="236.85999"
       id="rect3691"
       style="fill:#b7c8b7;fill-opacity:1;stroke:none" />
    <rect
       width="8.375"
       height="8"
       x="1703.875"
       y="236.85999"
       id="rect3695"
       style="fill:#b7c8b7;fill-opacity:1;stroke:none" />
    <rect
       width="8.375"
       height="8"
       x="1712.25"
       y="236.85999"
       id="rect3697"
       style="fill:#b7c8b7;fill-opacity:1;stroke:none" />
    <rect
       width="8.375"
       height="8"
       x="1712.25"
       y="228.85999"
       id="rect3715"
       style="fill:#b7c8b7;fill-opacity:1;stroke:none" />
    <rect
       width="8.375"
       height="8"
       x="1662"
       y="220.85999"
       id="rect3721"
       style="fill:#b7c8b7;fill-opacity:1;stroke:none" />
    <rect
       width="8.375"
       height="8"
       x="1678.75"
       y="220.85999"
       id="rect3725"
       style="fill:#b7c8b7;fill-opacity:1;stroke:none" />
    <rect
       width="8.375"
       height="8"
       x="1687.125"
       y="220.85999"
       id="rect3727"
       style="fill:#b7c8b7;fill-opacity:1;stroke:none" />
    <rect
       width="8.375"
       height="8"
       x="1703.875"
       y="220.85999"
       id="rect3731"
       style="fill:#b7c8b7;fill-opacity:1;stroke:none" />
    <rect
       width="8.375"
       height="8"
       x="1720.625"
       y="220.85999"
       id="rect3735"
       style="fill:#b7c8b7;fill-opacity:1;stroke:none" />
    <rect
       width="8.375"
       height="8"
       x="1670.375"
       y="212.85999"
       id="rect3741"
       style="fill:#b7c8b7;fill-opacity:1;stroke:none" />
    <rect
       width="8.375"
       height="8"
       x="1695.5"
       y="212.85999"
       id="rect3747"
       style="fill:#b7c8b7;fill-opacity:1;stroke:none" />
    <rect
       width="8.375"
       height="8"
       x="1703.875"
       y="212.85999"
       id="rect3749"
       style="fill:#b7c8b7;fill-opacity:1;stroke:none" />
    <rect
       width="8.375"
       height="8"
       x="1662"
       y="204.85999"
       id="rect3757"
       style="fill:#b7c8b7;fill-opacity:1;stroke:none" />
    <rect
       width="8.375"
       height="8"
       x="1670.375"
       y="204.85999"
       id="rect3759"
       style="fill:#b7c8b7;fill-opacity:1;stroke:none" />
    <rect
       width="8.375"
       height="8"
       x="1687.125"
       y="204.85999"
       id="rect3763"
       style="fill:#b7c8b7;fill-opacity:1;stroke:none" />
    <rect
       width="8.375"
       height="8"
       x="1712.25"
       y="204.85999"
       id="rect3769"
       style="fill:#b7c8b7;fill-opacity:1;stroke:none" />
    <rect
       width="8.375"
       height="8"
       x="1720.625"
       y="204.85999"
       id="rect3771"
       style="fill:#b7c8b7;fill-opacity:1;stroke:none" />
  </g>
</svg>
